# xmcd
#
# Track frame offsets:
#	150
#	30837
#	50210
#	77555
#	119695
#	144355
#	171372
#	199512
#	241180
#
# Disc length: 3782 seconds
#
# Revision: 0
# Processed by: cddbd v1.5.2PL0 Copyright (c) Steve Scherf et al.
# Submitted via: audiograbber 1.83.01
#
DISCID=720ec409
DTITLE=Shades Of Brown - Lines and Spaces
DYEAR=1998
DGENRE=R&B
TTITLE0=Four Corners
TTITLE1=Eastern Excursion
TTITLE2=Lay Lady Lay
TTITLE3=Lines and Spaces
TTITLE4=The Joy You Bring
TTITLE5=Change Of Heart
TTITLE6=Restoration
TTITLE7=Layedbackretroswangthang
TTITLE8=Shades Of Brown
EXTD=
EXTT0=
EXTT1=
EXTT2=
EXTT3=
EXTT4=
EXTT5=
EXTT6=
EXTT7=
EXTT8=
PLAYORDER=
